<?xml version="1.0" standalone="no"?>
<!DOCTYPE svg PUBLIC "-//W3C//DTD SVG 20010904//EN"
 "http://www.w3.org/TR/2001/REC-SVG-20010904/DTD/svg10.dtd">
<svg version="1.0" xmlns="http://www.w3.org/2000/svg"
 width="2130.000000pt" height="2130.000000pt" viewBox="0 0 2130.000000 2130.000000"
 preserveAspectRatio="xMidYMid meet">

<g transform="translate(0.000000,2130.000000) scale(0.100000,-0.100000)"
fill="#000000" stroke="none">
<path d="M10355 21293 c-2009 -57 -3934 -668 -5595 -1774 -580 -386 -1063
-777 -1554 -1259 -1329 -1304 -2283 -2899 -2791 -4670 -586 -2043 -542 -4269
125 -6280 628 -1895 1785 -3588 3320 -4856 1043 -862 2206 -1504 3480 -1922
831 -273 1644 -430 2610 -504 226 -17 1167 -17 1400 0 1340 100 2521 396 3686
922 170 77 568 274 672 334 35 20 65 36 67 36 9 0 375 215 510 300 1667 1042
3012 2521 3891 4280 564 1128 915 2320 1054 3575 40 366 51 568 57 1030 7 558
-9 906 -62 1370 -310 2705 -1650 5188 -3750 6946 -1407 1178 -3108 1976 -4907
2303 -725 132 -1488 190 -2213 169z m2865 -4638 l0 -3385 3260 0 3260 0 0
-2595 0 -2595 -1930 0 -1930 0 0 64 c0 150 100 587 295 1288 85 303 105 427
105 641 0 207 -33 312 -112 353 -52 27 -142 16 -232 -30 -96 -49 -267 -186
-348 -279 -142 -162 -222 -224 -356 -275 -60 -24 -81 -26 -205 -27 -134 0
-139 1 -158 23 -10 13 -24 42 -30 65 -15 58 -12 210 7 287 22 88 28 330 15
523 -24 336 -86 527 -171 527 -80 0 -297 -282 -621 -810 -59 -96 -112 -181
-116 -188 -6 -10 -23 -10 -83 2 -369 69 -822 -28 -1281 -275 -63 -33 -154 -87
-203 -120 l-89 -59 -176 -10 c-555 -33 -852 -166 -936 -419 -29 -89 -18 -222
29 -338 l38 -93 -18 -117 c-27 -174 -25 -441 4 -545 11 -43 27 -89 35 -104 7
-14 121 -135 253 -268 132 -132 273 -279 315 -326 794 -893 1250 -1802 1330
-2654 13 -138 7 -426 -10 -506 -6 -28 -10 -570 -11 -1427 l0 -1383 -2555 0
-2555 0 0 3355 0 3355 -3280 0 -3280 0 0 2507 0 2506 678 -6 c1441 -14 2205
-74 2927 -233 236 -52 860 -209 973 -245 637 -203 1620 -778 2777 -1624 71
-51 210 -156 427 -320 36 -27 126 -98 200 -156 111 -89 145 -110 201 -128 178
-55 424 -67 624 -31 310 56 619 210 953 474 41 32 151 135 244 228 92 92 191
184 220 203 70 46 173 137 218 191 21 25 52 76 70 112 29 59 33 76 33 147 0
73 -4 88 -37 156 -45 90 -107 162 -207 241 -81 64 -225 153 -315 194 -39 18
-71 43 -108 87 -29 34 -55 64 -58 67 -21 19 -205 261 -275 361 -85 121 -193
295 -235 378 -21 42 -21 44 -6 140 27 163 36 270 36 431 0 235 -24 369 -91
505 -33 68 -70 115 -252 315 -659 728 -900 996 -904 1006 -2 6 23 49 56 95
206 288 397 680 472 966 49 191 76 461 50 502 -12 19 -143 10 -326 -24 -562
-103 -1149 -367 -1684 -758 -73 -54 -134 -97 -137 -97 -2 0 -4 797 -4 1770 l0
1770 2610 0 2610 0 0 -3385z"/>
</g>
</svg>
